<?xml version="1.0" encoding="UTF-8" standalone="no"?>
<!-- Created with Inkscape (http://www.inkscape.org/) -->

<svg
   xmlns:dc="http://purl.org/dc/elements/1.1/"
   xmlns:cc="http://creativecommons.org/ns#"
   xmlns:rdf="http://www.w3.org/1999/02/22-rdf-syntax-ns#"
   xmlns:svg="http://www.w3.org/2000/svg"
   xmlns="http://www.w3.org/2000/svg"
   xmlns:sodipodi="http://sodipodi.sourceforge.net/DTD/sodipodi-0.dtd"
   xmlns:inkscape="http://www.inkscape.org/namespaces/inkscape"
   width="171.60756"
   height="90.467628"
   id="svg7675"
   version="1.1"
   inkscape:version="0.48.0 r9654"
   sodipodi:docname="New document 21">
  <defs
     id="defs7677">
    <clipPath
       clipPathUnits="userSpaceOnUse"
       id="clipPath7501">
      <path
         inkscape:connector-curvature="0"
         d="m 55.75,490.59 155.5,0 0,-98.81 -155.5,0 0,98.81 z"
         clip-rule="evenodd"
         id="path7503" />
    </clipPath>
    <clipPath
       clipPathUnits="userSpaceOnUse"
       id="clipPath7507">
      <path
         inkscape:connector-curvature="0"
         d="M 0,792 612,792 612,0 0,0 0,792 z"
         id="path7509" />
    </clipPath>
    <clipPath
       clipPathUnits="userSpaceOnUse"
       id="clipPath7513">
      <path
         inkscape:connector-curvature="0"
         d="m 0.06,792 612,0 0,-792 -612,0 0,792 z"
         id="path7515" />
    </clipPath>
  </defs>
  <sodipodi:namedview
     id="base"
     pagecolor="#ffffff"
     bordercolor="#666666"
     borderopacity="1.0"
     inkscape:pageopacity="0.0"
     inkscape:pageshadow="2"
     inkscape:zoom="2.8"
     inkscape:cx="46.236262"
     inkscape:cy="21.01646"
     inkscape:document-units="px"
     inkscape:current-layer="layer1"
     showgrid="false"
     fit-margin-top="0"
     fit-margin-left="0"
     fit-margin-right="0"
     fit-margin-bottom="0"
     inkscape:window-width="1280"
     inkscape:window-height="756"
     inkscape:window-x="0"
     inkscape:window-y="0"
     inkscape:window-maximized="1" />
  <metadata
     id="metadata7680">
    <rdf:RDF>
      <cc:Work
         rdf:about="">
        <dc:format>image/svg+xml</dc:format>
        <dc:type
           rdf:resource="http://purl.org/dc/dcmitype/StillImage" />
        <dc:title></dc:title>
      </cc:Work>
    </rdf:RDF>
  </metadata>
  <g
     inkscape:label="Layer 1"
     inkscape:groupmode="layer"
     id="layer1"
     transform="translate(-254.625,-346.125)">
    <path
       d="m 343.61812,346.14513 1.25,8.125 -2.5,0 1.25,-8.125 z"
       style="fill:#000000;fill-opacity:1;fill-rule:nonzero;stroke:#000000;stroke-width:0.3125;stroke-linecap:butt;stroke-linejoin:miter;stroke-miterlimit:4;stroke-opacity:1;stroke-dasharray:none"
       id="path7517"
       inkscape:connector-curvature="0" />
    <path
       d="m 420.33187,435.34263 -8.105,1.25 0,-2.5 8.105,1.25"
       style="fill:#000000;fill-opacity:1;fill-rule:nonzero;stroke:none"
       id="path7519"
       inkscape:connector-curvature="0" />
    <path
       d="m 417.18687,435.34263 -73.56875,0 0,-86.6775"
       style="fill:none;stroke:#000000;stroke-width:0.3125;stroke-linecap:butt;stroke-linejoin:round;stroke-miterlimit:4;stroke-opacity:1;stroke-dasharray:none"
       id="path7521"
       inkscape:connector-curvature="0" />
    <path
       d="m 256.07437,346.14513 1.25,7.5 -2.5,0 1.25,-7.5 z"
       style="fill:#000000;fill-opacity:1;fill-rule:nonzero;stroke:#000000;stroke-width:0.3125;stroke-linecap:butt;stroke-linejoin:miter;stroke-miterlimit:4;stroke-opacity:1;stroke-dasharray:none"
       id="path7527"
       inkscape:connector-curvature="0" />
    <path
       d="m 332.78812,435.34263 -8.105,1.25 0,-2.5 8.105,1.25"
       style="fill:#000000;fill-opacity:1;fill-rule:nonzero;stroke:none"
       id="path7529"
       inkscape:connector-curvature="0" />
    <path
       d="m 329.64312,435.34263 -73.56875,0 0,-86.6775"
       style="fill:none;stroke:#000000;stroke-width:0.3125;stroke-linecap:butt;stroke-linejoin:round;stroke-miterlimit:4;stroke-opacity:1;stroke-dasharray:none"
       id="path7531"
       inkscape:connector-curvature="0" />
    <path
       d="m 339.60187,391.46763 -7.5,1.25 0,-2.5 7.5,1.25"
       style="fill:#000000;fill-opacity:1;fill-rule:nonzero;stroke:none"
       id="path7537"
       inkscape:connector-curvature="0" />
    <text
       id="text7539"
       x="330.42188"
       y="400.18262"
       style="font-size:15px">
      <tspan
         style="font-size:10px;font-variant:normal;font-weight:normal;writing-mode:lr-tb;fill:#000000;fill-opacity:1;fill-rule:nonzero;stroke:none;font-family:Symbol;-inkscape-font-specification:Symbol"
         x="330.42188"
         y="400.18262"
         id="tspan7541">Φ</tspan>
    </text>
    <path
       d="m 346.24062,382.26138 72.965,18.70875 m -102.85125,5.2975 c 4.27375,-5.28125 0.57,-14.12 -8.26875,-19.73 -8.83875,-5.61 -19.48,-5.8775 -23.75375,-0.5975 -4.27375,5.28125 -0.56875,14.12 8.26875,19.73125 8.83875,5.61 19.48,5.8775 23.75375,0.59625 z"
       style="fill:none;stroke:#000000;stroke-width:1.25;stroke-linecap:butt;stroke-linejoin:round;stroke-miterlimit:4;stroke-opacity:1;stroke-dasharray:none"
       id="path7543"
       inkscape:connector-curvature="0" />
    <path
       d="m 366.55562,368.20138 2.84125,-2.8425 2.85,2.8425 -2.85,2.84875 -2.84125,-2.84875 z"
       style="fill:#ff0000;fill-opacity:1;fill-rule:nonzero;stroke:#000000;stroke-width:0.3125;stroke-linecap:butt;stroke-linejoin:miter;stroke-miterlimit:4;stroke-opacity:1;stroke-dasharray:none"
       id="path7545"
       inkscape:connector-curvature="0" />
    <path
       d="m 290.17937,391.96138 2.84125,-2.84125 2.85,2.84125 -2.85,2.85 -2.84125,-2.85 z"
       style="fill:#ff0000;fill-opacity:1;fill-rule:nonzero;stroke:#000000;stroke-width:0.3125;stroke-linecap:butt;stroke-linejoin:miter;stroke-miterlimit:4;stroke-opacity:1;stroke-dasharray:none"
       id="path7547"
       inkscape:connector-curvature="0" />
    <path
       d="m 302.05937,397.90138 2.84125,-2.84125 2.85,2.84125 -2.85,2.85 -2.84125,-2.85 z"
       style="fill:#ff0000;fill-opacity:1;fill-rule:nonzero;stroke:#000000;stroke-width:0.3125;stroke-linecap:butt;stroke-linejoin:miter;stroke-miterlimit:4;stroke-opacity:1;stroke-dasharray:none"
       id="path7549"
       inkscape:connector-curvature="0" />
    <path
       d="m 402.19687,378.59638 2.84125,-2.84125 2.85,2.84125 -2.85,2.85 -2.84125,-2.85 z"
       style="fill:#ff0000;fill-opacity:1;fill-rule:nonzero;stroke:#000000;stroke-width:0.3125;stroke-linecap:butt;stroke-linejoin:miter;stroke-miterlimit:4;stroke-opacity:1;stroke-dasharray:none"
       id="path7551"
       inkscape:connector-curvature="0" />
    <path
       d="m 294.52937,366.84513 c 1.5675,0 2.85,1.27375 2.85,2.84125 0,1.5675 -1.2825,2.85 -2.85,2.85 -1.575,0 -2.865,-1.2675 -2.865,-2.85 0,-1.58375 1.29,-2.84125 2.865,-2.84125 z"
       style="fill:#00ff00;fill-opacity:1;fill-rule:nonzero;stroke:#000000;stroke-width:0.3125;stroke-linecap:butt;stroke-linejoin:miter;stroke-miterlimit:4;stroke-opacity:1;stroke-dasharray:none"
       id="path7553"
       inkscape:connector-curvature="0" />
    <path
       d="m 321.25937,417.33513 c 1.5675,0 2.85,1.275 2.85,2.84125 0,1.5675 -1.2825,2.85 -2.85,2.85 -1.575,0 -2.865,-1.26625 -2.865,-2.85 0,-1.5825 1.29,-2.84125 2.865,-2.84125 z"
       style="fill:#00ff00;fill-opacity:1;fill-rule:nonzero;stroke:#000000;stroke-width:0.3125;stroke-linecap:butt;stroke-linejoin:miter;stroke-miterlimit:4;stroke-opacity:1;stroke-dasharray:none"
       id="path7555"
       inkscape:connector-curvature="0" />
    <path
       d="m 275.22437,408.42513 c 1.5675,0 2.84875,1.275 2.84875,2.84125 0,1.5675 -1.28125,2.85 -2.84875,2.85 -1.575,0 -2.86625,-1.26625 -2.86625,-2.85 0,-1.5825 1.29125,-2.84125 2.86625,-2.84125 z"
       style="fill:#00ff00;fill-opacity:1;fill-rule:nonzero;stroke:#000000;stroke-width:0.3125;stroke-linecap:butt;stroke-linejoin:miter;stroke-miterlimit:4;stroke-opacity:1;stroke-dasharray:none"
       id="path7557"
       inkscape:connector-curvature="0" />
    <path
       d="m 373.87562,403.97013 c 1.5675,0 2.85,1.27375 2.85,2.84125 0,1.5675 -1.2825,2.85 -2.85,2.85 -1.575,0 -2.865,-1.26625 -2.865,-2.85 0,-1.5825 1.29,-2.84125 2.865,-2.84125 z"
       style="fill:#00ff00;fill-opacity:1;fill-rule:nonzero;stroke:#000000;stroke-width:0.3125;stroke-linecap:butt;stroke-linejoin:miter;stroke-miterlimit:4;stroke-opacity:1;stroke-dasharray:none"
       id="path7559"
       inkscape:connector-curvature="0" />
    <path
       d="m 353.08562,409.91013 c 1.5675,0 2.85,1.275 2.85,2.84125 0,1.5675 -1.2825,2.85 -2.85,2.85 -1.575,0 -2.865,-1.26625 -2.865,-2.85 0,-1.5825 1.29,-2.84125 2.865,-2.84125 z"
       style="fill:#00ff00;fill-opacity:1;fill-rule:nonzero;stroke:#000000;stroke-width:0.3125;stroke-linecap:butt;stroke-linejoin:miter;stroke-miterlimit:4;stroke-opacity:1;stroke-dasharray:none"
       id="path7561"
       inkscape:connector-curvature="0" />
    <path
       d="m 393.18187,423.27513 c 1.56625,0 2.84875,1.275 2.84875,2.8425 0,1.56625 -1.2825,2.84875 -2.84875,2.84875 -1.575,0 -2.86625,-1.26625 -2.86625,-2.84875 0,-1.58375 1.29125,-2.8425 2.86625,-2.8425 z"
       style="fill:#00ff00;fill-opacity:1;fill-rule:nonzero;stroke:#000000;stroke-width:0.3125;stroke-linecap:butt;stroke-linejoin:miter;stroke-miterlimit:4;stroke-opacity:1;stroke-dasharray:none"
       id="path7563"
       inkscape:connector-curvature="0" />
    <path
       d="m 317.76062,391.46763 19.94625,0"
       style="fill:none;stroke:#000000;stroke-width:0.3125;stroke-linecap:butt;stroke-linejoin:round;stroke-miterlimit:4;stroke-opacity:1;stroke-dasharray:2.5, 1.25;stroke-dashoffset:0"
       id="path7565"
       inkscape:connector-curvature="0" />
    <text
       xml:space="preserve"
       style="font-size:12px;font-style:normal;font-variant:normal;font-weight:500;font-stretch:normal;text-align:start;line-height:125%;letter-spacing:0px;word-spacing:0px;writing-mode:lr-tb;text-anchor:start;fill:#000000;fill-opacity:1;stroke:none;font-family:Inconsolata;-inkscape-font-specification:Inconsolata Medium"
       x="261.78574"
       y="356.63217"
       id="text8432"
       sodipodi:linespacing="125%"><tspan
         sodipodi:role="line"
         id="tspan8434"
         x="261.78574"
         y="356.63217">Input space</tspan></text>
    <text
       xml:space="preserve"
       style="font-size:12px;font-style:normal;font-variant:normal;font-weight:500;font-stretch:normal;text-align:start;line-height:125%;letter-spacing:0px;word-spacing:0px;writing-mode:lr-tb;text-anchor:start;fill:#000000;fill-opacity:1;stroke:none;font-family:Inconsolata;-inkscape-font-specification:Inconsolata Medium"
       x="347.5"
       y="356.63217"
       id="text8436"
       sodipodi:linespacing="125%"><tspan
         sodipodi:role="line"
         id="tspan8438"
         x="347.5"
         y="356.63217">Feature space</tspan></text>
  </g>
</svg>
